<svg width="146" height="138" viewBox="0 0 146 138" fill="none" xmlns="http://www.w3.org/2000/svg">
<path d="M81.9979 38.7178C78.1325 26.9573 61.4648 26.9573 57.5994 38.7178C55.7457 44.3575 50.4262 48.1777 44.493 48.1777C32.1785 48.1781 26.9308 63.9506 36.8992 71.1104C41.7404 74.5874 43.764 80.8099 41.9031 86.4717C38.0733 98.124 51.645 107.778 61.6561 100.588C66.4823 97.1218 73.114 97.1218 77.9402 100.588C87.9513 107.778 101.523 98.124 97.6932 86.4717C95.8323 80.8099 97.856 74.5874 102.697 71.1104C112.666 63.9506 107.418 48.178 95.1033 48.1777C89.1702 48.1777 83.8516 44.3573 81.9979 38.7178Z" fill="#AD8B26" stroke="#AD8B26"/>
<path d="M87.4512 39.0293C83.887 28.1863 68.5163 28.1863 64.9521 39.0293C62.9626 45.0826 57.2583 49.1777 50.8965 49.1777C39.5119 49.1781 34.74 63.73 43.8857 70.2988C49.082 74.0309 51.2539 80.7083 49.2568 86.7842C45.748 97.46 58.2016 106.437 67.4756 99.7764C72.6506 96.0595 79.7528 96.0595 84.9277 99.7764C94.2018 106.437 106.655 97.46 103.146 86.7842C101.149 80.7083 103.321 74.031 108.518 70.2988C117.663 63.73 112.892 49.178 101.507 49.1777C95.145 49.1777 89.4408 45.0826 87.4512 39.0293Z" fill="#EBCA50" stroke="#0D1B2A" stroke-width="3"/>
</svg>
