<svg width="84" height="75" viewBox="0 0 84 75" fill="none" xmlns="http://www.w3.org/2000/svg">
<path d="M50.9979 9.71784C47.1325 -2.04266 30.4648 -2.04266 26.5994 9.71784C24.7457 15.3575 19.4262 19.1777 13.493 19.1777C1.1785 19.1781 -4.0692 34.9506 5.8992 42.1104C10.7404 45.5874 12.764 51.8099 10.9031 57.4717C7.0733 69.124 20.645 78.778 30.6561 71.588C35.4823 68.1218 42.114 68.1218 46.9402 71.588C56.9513 78.778 70.523 69.124 66.6932 57.4717C64.8323 51.8099 66.856 45.5874 71.697 42.1104C81.666 34.9506 76.418 19.178 64.1033 19.1777C58.1702 19.1777 52.8516 15.3573 50.9979 9.71784Z" fill="#AD8B26" stroke="#AD8B26"/>
<path d="M56.4512 10.0293C52.887 -0.813656 37.5163 -0.813656 33.9521 10.0293C31.9626 16.0826 26.2583 20.1777 19.8965 20.1777C8.5119 20.1781 3.74 34.73 12.8857 41.2988C18.082 45.0309 20.2539 51.7083 18.2568 57.7842C14.748 68.4601 27.2016 77.437 36.4756 70.7764C41.6506 67.0595 48.7528 67.0595 53.9277 70.7764C63.2018 77.437 75.655 68.4601 72.146 57.7842C70.149 51.7083 72.321 45.031 77.518 41.2988C86.663 34.73 81.892 20.178 70.507 20.1777C64.145 20.1777 58.4408 16.0826 56.4512 10.0293Z" fill="#EBCA50" stroke="#0D1B2A" stroke-width="3"/>
</svg>
